<svg xmlns="http://www.w3.org/2000/svg" xmlns:svg="http://www.w3.org/2000/svg" xmlns:xlink="http://www.w3.org/1999/xlink" id="svg8" width="557.524" height="561.564" version="1.1" viewBox="0 0 147.511 148.581"><defs id="defs2"><linearGradient id="linearGradient5085"><stop style="stop-color:#ff8c00;stop-opacity:.91891891" id="stop5081" offset="0"/><stop style="stop-color:#fb8700;stop-opacity:1" id="stop5083" offset="1"/></linearGradient><linearGradient id="linearGradient5045-2-1-7-0-3"><stop style="stop-color:#ffd119;stop-opacity:.93838865" id="stop5041" offset="0"/><stop style="stop-color:#fac718;stop-opacity:1" id="stop5043" offset="1"/></linearGradient><linearGradient id="linearGradient4516"><stop style="stop-color:#f55a34;stop-opacity:1" id="stop4512" offset="0"/><stop style="stop-color:#f44920;stop-opacity:1" id="stop4514" offset="1"/></linearGradient><linearGradient id="linearGradient4518" x1="32.456" x2="32.556" y1="113.304" y2="260.336" gradientTransform="translate(-0.8333323,-38.886899)" gradientUnits="userSpaceOnUse" xlink:href="#linearGradient4516"/><linearGradient id="linearGradient5047" x1="167.366" x2="167.366" y1="85" y2="210.11" gradientTransform="matrix(1,0,0,0.99236712,0,1.6095118)" gradientUnits="userSpaceOnUse" xlink:href="#linearGradient5045-2-1-7-0-3"/><linearGradient id="linearGradient5065" x1="161.073" x2="161.073" y1="92.507" y2="204.226" gradientUnits="userSpaceOnUse" xlink:href="#linearGradient5045-2-1-7-0-3"/><linearGradient id="linearGradient5071" x1="161.073" x2="161.073" y1="92.507" y2="204.226" gradientTransform="matrix(0.9,0,0,0.9,10.5,14.85)" gradientUnits="userSpaceOnUse" xlink:href="#linearGradient5045-2-1-7-0-3"/><linearGradient id="linearGradient5077" x1="161.073" x2="161.073" y1="92.507" y2="204.226" gradientTransform="matrix(0.81,0,0,0.81,19.95,28.215)" gradientUnits="userSpaceOnUse" xlink:href="#linearGradient5045-2-1-7-0-3"/><linearGradient id="linearGradient5087" x1="147.222" x2="147.222" y1="106.734" y2="190.644" gradientUnits="userSpaceOnUse" xlink:href="#linearGradient5085"/><linearGradient id="linearGradient5246" x1="116.129" x2="116.129" y1="86.993" y2="210.071" gradientUnits="userSpaceOnUse" xlink:href="#linearGradient5045-2-1-7-0-3"/><linearGradient id="linearGradient5255" x1="104.222" x2="104.222" y1="210.969" y2="86.094" gradientTransform="rotate(-180,105.1109,148.59197)" gradientUnits="userSpaceOnUse" xlink:href="#linearGradient5045-2-1-7-0-3"/><linearGradient id="linearGradient5277" x1="161.073" x2="161.073" y1="92.507" y2="204.226" gradientTransform="matrix(0.88513844,0,0,0.88513844,12.060464,17.056942)" gradientUnits="userSpaceOnUse" xlink:href="#linearGradient5045-2-1-7-0-3"/><linearGradient id="linearGradient5301" x1="161.073" x2="161.073" y1="92.507" y2="204.226" gradientTransform="matrix(0.76711996,0,0,0.76711992,24.4524,34.582685)" gradientUnits="userSpaceOnUse" xlink:href="#linearGradient5045-2-1-7-0-3"/><linearGradient id="linearGradient5305" x1="161.073" x2="161.073" y1="92.507" y2="204.226" gradientTransform="matrix(0.70095771,0,0,0.70095768,31.399436,44.407779)" gradientUnits="userSpaceOnUse" xlink:href="#linearGradient5085"/><linearGradient id="linearGradient5316" x1="96.1" x2="96.1" y1="86.89" y2="210.677" gradientUnits="userSpaceOnUse" xlink:href="#linearGradient5045-2-1-7-0-3"/><linearGradient id="linearGradient5325" x1="99.174" x2="99.174" y1="211.037" y2="86.664" gradientTransform="rotate(180,104.87832,148.78856)" gradientUnits="userSpaceOnUse" xlink:href="#linearGradient5045-2-1-7-0-3"/><linearGradient id="linearGradient5346" x1="161.073" x2="161.073" y1="92.507" y2="204.226" gradientTransform="matrix(0.88513844,0,0,0.88513844,12.060464,17.056942)" gradientUnits="userSpaceOnUse" xlink:href="#linearGradient5045-2-1-7-0-3"/></defs><metadata id="metadata5"/><g id="layer2" transform="translate(-31.244263,-74.74427)"><ellipse style="fill:#000;fill-opacity:.23222752;stroke-width:.26554036" id="circle5049" cx="105" cy="149.035" rx="73.756" ry="74.29"/><g id="g5134" transform="matrix(0.08133661,0,0,0.08133661,71.429824,107.88499)" style="display:inline;fill:#000;fill-opacity:.31531534"><path style="fill:#000;fill-opacity:.31531534;fill-rule:nonzero;stroke:none" id="path5124" d="m 301.42856,312.42213 372.68414,-76 v 103.92858 l -372.68414,76 z"/><rect style="fill:#000;fill-opacity:.31531534;fill-rule:nonzero;stroke:none" id="rect5126" width="60" height="388.5" x="301.429" y="312.342"/><ellipse style="fill:#000;fill-opacity:.31531534;fill-rule:nonzero;stroke:none" id="ellipse5128" cx="-165" cy="470.362" rx="125" ry="78" transform="matrix(0.77274066,-0.20705524,0.24886447,0.92877483,273.33148,240.33751)"/><rect style="display:inline;fill:#000;fill-opacity:.31531534;fill-rule:nonzero;stroke:none" id="rect5130" width="60" height="388.5" x="614.113" y="248.877"/><ellipse style="display:inline;fill:#000;fill-opacity:.31531534;fill-rule:nonzero;stroke:none" id="ellipse5132" cx="-165" cy="470.362" rx="125" ry="78" transform="matrix(0.77274066,-0.20705524,0.24886447,0.92877483,586.01559,176.87275)"/></g></g><g id="layer1" transform="translate(-31.244263,-74.74427)"><circle id="path3705" cx="105" cy="148.5" r="73.756" style="fill:url(#linearGradient4518);fill-opacity:1;stroke-width:.26458332"/><circle style="opacity:1;vector-effect:none;fill:#ffe064;fill-opacity:1;fill-rule:evenodd;stroke:none;stroke-width:.26458332;stroke-linecap:butt;stroke-linejoin:miter;stroke-miterlimit:4;stroke-dasharray:none;stroke-dashoffset:0;stroke-opacity:1" id="path4520" cx="105" cy="148.5" r="62.366"/><ellipse id="circle5039" cx="105" cy="148.976" rx="62.366" ry="61.89" style="opacity:1;vector-effect:none;fill:url(#linearGradient5047);fill-opacity:1;fill-rule:evenodd;stroke:none;stroke-width:.26357162;stroke-linecap:butt;stroke-linejoin:miter;stroke-miterlimit:4;stroke-dasharray:none;stroke-dashoffset:0;stroke-opacity:1"/><circle id="circle5053" cx="105" cy="148.5" r="58.997" style="opacity:1;vector-effect:none;fill:#ffe064;fill-opacity:1;fill-rule:evenodd;stroke:none;stroke-width:.25028974;stroke-linecap:butt;stroke-linejoin:miter;stroke-miterlimit:4;stroke-dasharray:none;stroke-dashoffset:0;stroke-opacity:1"/><circle id="circle5057" cx="105" cy="148.5" r="56.047" style="opacity:1;vector-effect:none;fill:url(#linearGradient5065);fill-opacity:1;fill-rule:evenodd;stroke:none;stroke-width:.23777525;stroke-linecap:butt;stroke-linejoin:miter;stroke-miterlimit:4;stroke-dasharray:none;stroke-dashoffset:0;stroke-opacity:1"/><circle style="opacity:1;vector-effect:none;fill:url(#linearGradient5071);fill-opacity:1;fill-rule:evenodd;stroke:none;stroke-width:.21399772;stroke-linecap:butt;stroke-linejoin:miter;stroke-miterlimit:4;stroke-dasharray:none;stroke-dashoffset:0;stroke-opacity:1" id="circle5069" cx="105" cy="148.5" r="50.442"/><circle id="circle5075" cx="105" cy="148.5" r="45.398" style="opacity:1;vector-effect:none;fill:url(#linearGradient5077);fill-opacity:1;fill-rule:evenodd;stroke:none;stroke-width:.19259796;stroke-linecap:butt;stroke-linejoin:miter;stroke-miterlimit:4;stroke-dasharray:none;stroke-dashoffset:0;stroke-opacity:1"/><circle style="opacity:1;vector-effect:none;fill:url(#linearGradient5087);fill-opacity:1;fill-rule:evenodd;stroke:none;stroke-width:.2836262;stroke-linecap:butt;stroke-linejoin:miter;stroke-miterlimit:4;stroke-dasharray:none;stroke-dashoffset:0;stroke-opacity:1" id="path5079" cx="105" cy="148.5" r="42.08"/><circle style="opacity:1;vector-effect:none;fill:#ffe064;fill-opacity:1;fill-rule:evenodd;stroke:none;stroke-width:.22298451;stroke-linecap:butt;stroke-linejoin:miter;stroke-miterlimit:4;stroke-dasharray:none;stroke-dashoffset:0;stroke-opacity:1" id="circle5267" cx="105" cy="148.5" r="52.561"/><circle style="opacity:1;vector-effect:none;fill:url(#linearGradient5346);fill-opacity:1;fill-rule:evenodd;stroke:none;stroke-width:.21046402;stroke-linecap:butt;stroke-linejoin:miter;stroke-miterlimit:4;stroke-dasharray:none;stroke-dashoffset:0;stroke-opacity:1" id="circle5269" cx="105" cy="148.5" r="49.609"/><circle id="circle5283" cx="105" cy="148.5" r="46.302" style="opacity:1;vector-effect:none;fill:#ffe064;fill-opacity:1;fill-rule:evenodd;stroke:none;stroke-width:.19643308;stroke-linecap:butt;stroke-linejoin:miter;stroke-miterlimit:4;stroke-dasharray:none;stroke-dashoffset:0;stroke-opacity:1"/><circle id="circle5285" cx="105" cy="148.5" r="49.609" style="opacity:1;vector-effect:none;fill:url(#linearGradient5277);fill-opacity:1;fill-rule:evenodd;stroke:none;stroke-width:.21046402;stroke-linecap:butt;stroke-linejoin:miter;stroke-miterlimit:4;stroke-dasharray:none;stroke-dashoffset:0;stroke-opacity:1"/><circle id="circle5289" cx="105" cy="148.5" r="45.901" style="opacity:1;vector-effect:none;fill:#ffe064;fill-opacity:1;fill-rule:evenodd;stroke:none;stroke-width:.19473228;stroke-linecap:butt;stroke-linejoin:miter;stroke-miterlimit:4;stroke-dasharray:none;stroke-dashoffset:0;stroke-opacity:1"/><circle style="opacity:1;vector-effect:none;fill:url(#linearGradient5301);fill-opacity:1;fill-rule:evenodd;stroke:none;stroke-width:.18240213;stroke-linecap:butt;stroke-linejoin:miter;stroke-miterlimit:4;stroke-dasharray:none;stroke-dashoffset:0;stroke-opacity:1" id="circle5299" cx="105" cy="148.5" r="42.995"/><circle id="circle5303" cx="105" cy="148.5" r="39.287" style="opacity:1;vector-effect:none;fill:url(#linearGradient5305);fill-opacity:1;fill-rule:evenodd;stroke:none;stroke-width:.1666704;stroke-linecap:butt;stroke-linejoin:miter;stroke-miterlimit:4;stroke-dasharray:none;stroke-dashoffset:0;stroke-opacity:1"/></g><g id="layer7" transform="translate(-31.244263,-74.74427)"><g id="g5224" transform="matrix(0.08947027,0,0,0.08947027,65.903222,103.71765)" style="display:inline;fill:#9d6520;fill-opacity:1"><path style="fill:#9d6520;fill-opacity:1;fill-rule:nonzero;stroke:none" id="path5214" d="m 301.42856,312.42213 372.68414,-76 v 103.92858 l -372.68414,76 z"/><rect style="fill:#9d6520;fill-opacity:1;fill-rule:nonzero;stroke:none" id="rect5216" width="60" height="388.5" x="301.429" y="312.342"/><ellipse style="fill:#9d6520;fill-opacity:1;fill-rule:nonzero;stroke:none" id="ellipse5218" cx="-165" cy="470.362" rx="125" ry="78" transform="matrix(0.77274066,-0.20705524,0.24886447,0.92877483,273.33148,240.33751)"/><rect style="display:inline;fill:#9d6520;fill-opacity:1;fill-rule:nonzero;stroke:none" id="rect5220" width="60" height="388.5" x="614.113" y="248.877"/><ellipse style="display:inline;fill:#9d6520;fill-opacity:1;fill-rule:nonzero;stroke:none" id="ellipse5222" cx="-165" cy="470.362" rx="125" ry="78" transform="matrix(0.77274066,-0.20705524,0.24886447,0.92877483,586.01559,176.87275)"/></g></g><g id="layer5" transform="translate(-31.244263,-74.74427)"><g style="display:inline;fill:#fff;fill-opacity:1" id="g4087" transform="matrix(0.08947027,0,0,0.08947027,64.844888,102.13014)"><path id="rect4002" d="m 301.42856,312.42213 372.68414,-76 v 103.92858 l -372.68414,76 z" style="fill:#fff;fill-opacity:1;fill-rule:nonzero;stroke:none"/><rect id="rect3964" width="60" height="388.5" x="301.429" y="312.342" style="fill:#fff;fill-opacity:1;fill-rule:nonzero;stroke:none"/><ellipse id="path4005" cx="-165" cy="470.362" rx="125" ry="78" transform="matrix(0.77274066,-0.20705524,0.24886447,0.92877483,273.33148,240.33751)" style="fill:#fff;fill-opacity:1;fill-rule:nonzero;stroke:none"/><rect id="rect3964-3" width="60" height="388.5" x="614.113" y="248.877" style="display:inline;fill:#fff;fill-opacity:1;fill-rule:nonzero;stroke:none"/><ellipse id="path4005-7" cx="-165" cy="470.362" rx="125" ry="78" transform="matrix(0.77274066,-0.20705524,0.24886447,0.92877483,586.01559,176.87275)" style="display:inline;fill:#fff;fill-opacity:1;fill-rule:nonzero;stroke:none"/></g></g><g id="layer8" transform="translate(-31.244263,-74.74427)" style="display:none"><path style="fill:url(#linearGradient5246);fill-opacity:1;fill-rule:evenodd;stroke:none;stroke-width:.26458332px;stroke-linecap:butt;stroke-linejoin:miter;stroke-opacity:1" id="path5238" d="m 54.723434,114.52173 13.8312,9.35443 -4.543584,10.02261 -2.071338,8.0849 -0.534538,8.41899 2.405425,11.42577 2.873147,7.75082 3.80859,5.67948 6.147199,6.48128 8.619443,5.47903 8.753078,4.00904 11.225324,1.46998 10.89123,-2.00452 -4.40995,2.20498 -7.81763,0.4009 -6.548104,-1.00226 -2.071341,-0.20045 -3.942226,15.43481 -6.88219,-1.80407 -6.414469,-3.00678 -6.815373,-3.60814 -4.677216,-3.40768 -12.027128,-12.56167 -4.209494,-7.41673 -4.142679,-13.09621 -1.536798,-14.96709 0.868624,-12.36122 1.80407,-6.08038 2.472242,-6.41447 2.405425,-4.54358 2.539061,-3.4745 z"/><path id="path5253" d="m 155.49838,182.6622 -13.8312,-9.35443 4.54358,-10.02261 2.07134,-8.0849 0.53454,-8.41899 -2.40543,-11.42577 -2.87314,-7.75082 -3.80859,-5.67948 -6.1472,-6.48128 -8.61945,-5.47903 -8.75307,-4.00904 -11.22533,-1.46998 -10.891232,2.00452 4.40995,-2.20498 7.817632,-0.4009 6.54811,1.00226 2.07134,0.20045 3.94222,-15.434808 6.88219,1.80407 6.41447,3.00678 6.81537,3.60814 4.67722,3.407678 12.02713,12.56167 4.20949,7.41673 4.14268,13.09621 1.5368,14.96709 -0.86862,12.36122 -1.80407,6.08038 -2.47225,6.41447 -2.40542,4.54358 -2.53906,3.4745 z" style="fill:url(#linearGradient5255);fill-opacity:1;fill-rule:evenodd;stroke:none;stroke-width:.26458332px;stroke-linecap:butt;stroke-linejoin:miter;stroke-opacity:1"/></g><g id="layer9" transform="translate(-31.244263,-74.74427)"><path style="fill:url(#linearGradient5316);fill-opacity:1;fill-rule:evenodd;stroke:none;stroke-width:.26458332px;stroke-linecap:butt;stroke-linejoin:miter;stroke-opacity:1" id="path5308" d="m 58.302826,109.14583 15.213541,12.94569 -3.874254,6.3311 -3.68527,8.50446 -1.606396,6.3311 -0.377979,5.66965 0.18899,4.81919 1.133927,4.8192 4.157739,9.92187 3.401785,6.52009 5.386163,4.91369 7.843004,5.10268 8.031995,2.92932 1.984375,0.85044 -4.460409,18.89426 -8.485277,-1.88533 -6.992559,-3.68527 c 0,0 -7.843004,-4.34672 -7.9375,-4.81919 -0.09449,-0.47247 -5.669643,-5.66965 -5.669643,-5.66965 l -9.071427,-10.67782 -5.480656,-10.20536 -3.307291,-13.32366 -0.47247,-13.04018 1.795386,-9.07143 2.834823,-10.29985 3.401785,-6.61458 2.929315,-4.53572 z"/><path id="path5323" d="m 151.45381,188.43128 -15.21354,-12.94569 3.87425,-6.3311 3.68527,-8.50446 1.6064,-6.3311 0.37798,-5.66965 -0.18899,-4.81919 -1.13393,-4.8192 -4.15774,-9.92187 -3.40178,-6.52009 -5.38617,-4.91369 -7.843,-5.10268 -8.032,-2.92932 -1.98437,-0.85044 4.46041,-18.894259 8.48528,1.88533 6.99255,3.68527 c 0,0 7.84301,4.346716 7.9375,4.819189 0.0945,0.47247 5.66965,5.66965 5.66965,5.66965 l 9.07142,10.67782 5.48066,10.20536 3.30729,13.32366 0.47247,13.04018 -1.79538,9.07143 -2.83483,10.29985 -3.40178,6.61458 -2.92932,4.53572 z" style="fill:url(#linearGradient5325);fill-opacity:1;fill-rule:evenodd;stroke:none;stroke-width:.26458332px;stroke-linecap:butt;stroke-linejoin:miter;stroke-opacity:1"/></g></svg>